# xmcd
#
# Track frame offsets: 
#        150
#        25318
#        47105
#        73568
#        95392
#        116000
#        130260
#        149687
#        175504
#        193764
#        211571
#        235382
#        256854
#        278823
#
# Disc length: 3980 seconds
#
# Revision: 1
# Processed by: cddbd v1.5.2PL0 Copyright (c) Steve Scherf et al.
# Submitted via: ExactAudioCopy v0.99pb3
#
DISCID=c90f8a0e
DTITLE=Various / Pure Punjabi
DYEAR=2006
DGENRE=Hip-Hop
TTITLE0=Ashok Mastie / Masti Hi Masti
TTITLE1=Jasbir Jassi / Nishani Pyar Di
TTITLE2=Rajinder Kaur Raina / Dil Naiyo Lagda
TTITLE3=Ashoo Punjabi / Billo Gori Gori
TTITLE4=Vikrant Singh / Nikki Nikki
TTITLE5=Simran Tripat / Mehendi
TTITLE6=Vikrant Singh / Sonne Da Challa
TTITLE7=Jasbir Jassi / Putt Jattan Da
TTITLE8=Gunjit Singh / Whiskey Di Bottle
TTITLE9=Rajeshwari T / Palla Sipaya
TTITLE10=Rajinder Kaur Raina / Mizra
TTITLE11=Kebi Dhindsa / Khalli Balli
TTITLE12=Preet Brar / Nachdi Nachdi Aa
TTITLE13=Sukhwinder and Shweeta Pandit / Rang De
EXTD=
EXTT0=
EXTT1=
EXTT2=
EXTT3=
EXTT4=
EXTT5=
EXTT6=
EXTT7=
EXTT8=
EXTT9=
EXTT10=
EXTT11=
EXTT12=
EXTT13=
PLAYORDER=
.
